<svg width="2000" height="50" viewBox="0 0 2000 50" xmlns="http://www.w3.org/2000/svg" preserveAspectRatio="none">
  <style>
    .cloud {
      animation: cloudMove 60s linear infinite;
    }
    .firefly {
      animation: blink 2s ease-in-out infinite alternate;
    }
    .firefly:nth-child(2) {animation-delay: 0.5s;}
    .firefly:nth-child(3) {animation-delay: 1s;}
    .firefly:nth-child(4) {animation-delay: 1.5s;}
    .firefly:nth-child(5) {animation-delay: 0.8s;}
    .firefly:nth-child(6) {animation-delay: 1.2s;}

    .moon {
      filter: drop-shadow(0 0 6px #fdfdfd);
      animation: moonGlow 3s ease-in-out infinite alternate;
    }

    @keyframes cloudMove {
      0% {transform: translateX(0);}
      100% {transform: translateX(-100px);}
    }
    @keyframes blink {
      0% {opacity: 0.2;}
      50% {opacity: 1;}
      100% {opacity: 0.2;}
    }
    @keyframes moonGlow {
      0% {filter: drop-shadow(0 0 4px #fdfdfd);}
      50% {filter: drop-shadow(0 0 10px #fdfdfd);}
      100% {filter: drop-shadow(0 0 4px #fdfdfd);}
    }
  </style>

  <!-- Céu -->
  <rect width="2000" height="50" fill="#0a1b2a"/>

  <!-- Estrelas -->
  <g fill="white">
    <circle cx="200" cy="8" r="0.6"/>
    <circle cx="500" cy="6" r="0.8"/>
    <circle cx="800" cy="10" r="0.6"/>
    <circle cx="1200" cy="7" r="0.7"/>
    <circle cx="1500" cy="9" r="0.6"/>
    <circle cx="1700" cy="5" r="0.7"/>
    <circle cx="1900" cy="11" r="0.8"/>
  </g>

  <!-- Lua com glow -->
  <circle class="moon" cx="1850" cy="12" r="7" fill="#fdfdfd"/>

  <!-- Nuvens animadas -->
  <g fill="#13293d" opacity="0.5" class="cloud">
    <ellipse cx="300" cy="10" rx="25" ry="5"/>
    <ellipse cx="330" cy="12" rx="18" ry="4"/>
    <ellipse cx="1000" cy="10" rx="30" ry="6"/>
    <ellipse cx="1040" cy="12" rx="20" ry="5"/>
    <ellipse cx="1700" cy="15" rx="27" ry="5"/>
    <ellipse cx="1740" cy="16" rx="18" ry="4"/>
  </g>

  <!-- Montanhas distantes -->
  <path d="M0 35 L100 20 L200 30 L300 15 L400 28 L500 18 L600 30 L700 14 L800 26 L900 18 L1000 32 L1100 16 L1200 28 L1300 19 L1400 30 L1500 14 L1600 28 L1700 15 L1800 24 L1900 17 L2000 30 V50 H0 Z"
    fill="#112a3f"/>

  <!-- Montanhas médias -->
  <path d="M0 38 L80 26 L160 35 L240 23 L320 32 L400 22 L480 34 L560 23 L640 35 L720 25 L800 36 L880 24 L960 34 L1040 26 L1120 36 L1200 22 L1280 34 L1360 26 L1440 36 L1520 23 L1600 34 L1680 26 L1760 35 L1840 23 L1920 32 L2000 26 V50 H0 Z"
    fill="#1a3b53"/>

  <!-- Árvores -->
  <g fill="#21506f">
    <path d="M100 36 l-3 -6 l3 -6 l3 6 l-3 6 Z"/>
    <path d="M300 37 l-4 -7 l4 -7 l4 7 l-4 7 Z"/>
    <path d="M500 36 l-3 -6 l3 -6 l3 6 l-3 6 Z"/>
    <path d="M700 38 l-4 -7 l4 -7 l4 7 l-4 7 Z"/>
    <path d="M900 37 l-3 -6 l3 -6 l3 6 l-3 6 Z"/>
    <path d="M1100 38 l-4 -7 l4 -7 l4 7 l-4 7 Z"/>
    <path d="M1300 37 l-3 -6 l3 -6 l3 6 l-3 6 Z"/>
    <path d="M1500 38 l-4 -7 l4 -7 l4 7 l-4 7 Z"/>
    <path d="M1700 37 l-3 -6 l3 -6 l3 6 l-3 6 Z"/>
    <path d="M1900 38 l-4 -7 l4 -7 l4 7 l-4 7 Z"/>
  </g>

  <!-- Vaga-lumes animados -->
  <g fill="#00ffcc">
    <circle class="firefly" cx="250" cy="40" r="1"/>
    <circle class="firefly" cx="520" cy="43" r="1.2"/>
    <circle class="firefly" cx="880" cy="41" r="1"/>
    <circle class="firefly" cx="1230" cy="44" r="1.2"/>
    <circle class="firefly" cx="1520" cy="42" r="1"/>
    <circle class="firefly" cx="1800" cy="43" r="1.2"/>
  </g>

  <!-- Neblina -->
  <g fill="white" opacity="0.07">
    <ellipse cx="600" cy="45" rx="120" ry="6"/>
    <ellipse cx="1300" cy="46" rx="180" ry="7"/>
    <ellipse cx="1800" cy="44" rx="150" ry="6"/>
  </g>

  <!-- Gramado próximo -->
  <path d="M0 47 Q100 44 200 47 T400 47 T600 47 T800 47 T1000 47 T1200 47 T1400 47 T1600 47 T1800 47 T2000 47 V50 H0 Z"
    fill="#2a6f90"/>
</svg>
